# Blender 3.3.0
# www.blender.org
mtllib materials.mtl
o Circle
v 0.003061 0.007391 1.499998
v -0.003061 0.007391 1.499998
v -0.007391 0.003061 1.500000
v -0.007391 -0.003061 1.500000
v -0.003061 -0.007391 1.499998
v 0.003061 -0.007391 1.499998
v 0.007391 -0.003061 1.499998
v 0.007391 0.003061 1.499998
v 0.004005 0.009668 1.499998
v -0.004005 0.009668 1.500000
v -0.009668 0.004005 1.500000
v -0.009668 -0.004005 1.500000
v -0.004005 -0.009668 1.500000
v 0.004005 -0.009668 1.499998
v 0.009668 -0.004005 1.499998
v 0.009668 0.004005 1.499998
v 0.004005 0.009668 0.420000
v -0.004005 0.009668 0.420000
v -0.009668 0.004005 0.420000
v -0.009668 -0.004005 0.420000
v -0.004005 -0.009668 0.420000
v 0.004005 -0.009668 0.420000
v 0.009668 -0.004005 0.420000
v 0.009668 0.004005 0.420000
v -0.011443 -0.003536 1.300000
v -0.011443 -0.022355 1.300000
v -0.004740 -0.026774 1.300000
v 0.004740 -0.026774 1.300000
v 0.011443 -0.022355 1.300000
v 0.011443 -0.003536 1.300000
v 0.009608 -0.002195 1.300000
v -0.009608 -0.002195 1.300000
v -0.011443 -0.003536 0.803666
v -0.011443 -0.022355 0.803666
v -0.004740 -0.026774 0.803666
v 0.004740 -0.026774 0.803666
v 0.011443 -0.022355 0.803666
v 0.011443 -0.003536 0.803666
v 0.009608 -0.002195 0.803666
v -0.009608 -0.002195 0.803666
v -0.011443 -0.003536 0.796334
v -0.011443 -0.022355 0.796334
v -0.004740 -0.030220 0.796334
v 0.004740 -0.030220 0.796334
v 0.011443 -0.022355 0.796334
v 0.011443 -0.003536 0.796334
v 0.009608 -0.002195 0.796334
v -0.009608 -0.002195 0.796334
v -0.011443 -0.003536 0.420000
v -0.011443 -0.022355 0.420000
v -0.004740 -0.030220 0.420000
v 0.004740 -0.030220 0.420000
v 0.011443 -0.022355 0.420000
v 0.011443 -0.003536 0.420000
v 0.009608 -0.002195 0.420000
v -0.009608 -0.002195 0.420000
v -0.011443 -0.022355 0.400000
v -0.004740 -0.030220 0.400000
v 0.004740 -0.030220 0.400000
v 0.011443 -0.022355 0.400000
v -0.011443 0.004805 0.420000
v -0.005312 0.010043 0.420000
v 0.011443 0.004805 0.420000
v 0.005312 0.010043 0.420000
v -0.011443 0.004805 0.400000
v -0.005312 0.010043 0.400000
v 0.011443 0.004805 0.400000
v 0.005312 0.010043 0.400000
v -0.011443 -0.025020 0.384881
v -0.004740 -0.032411 0.387570
v 0.004740 -0.032411 0.387570
v 0.011443 -0.025020 0.384881
v -0.011443 0.000780 0.377156
v -0.005312 0.005702 0.375365
v 0.011443 0.000780 0.377156
v 0.005312 0.005702 0.375365
v -0.006205 0.010043 0.250000
v -0.011442 -0.043009 0.256774
v -0.011442 -0.068809 0.264499
v 0.011443 -0.043009 0.256774
v 0.005312 -0.038087 0.254983
v 0.004740 -0.076200 0.267188
v 0.011443 -0.068809 0.264499
v -0.004739 -0.076200 0.267187
v -0.005312 -0.038087 0.254983
v -0.011442 -0.036562 0.224890
v -0.011442 -0.078298 0.238412
v 0.011443 -0.036562 0.224890
v 0.005312 -0.031640 0.223099
v 0.004740 -0.085689 0.241101
v 0.011443 -0.078298 0.238412
v -0.004739 -0.085689 0.241100
v -0.005312 -0.031640 0.223099
v -0.004738 -0.169423 0.006282
v -0.011441 -0.075296 0.005817
v 0.011444 -0.161572 0.006205
v 0.005313 -0.070068 0.005765
v -0.005311 -0.070068 0.005765
v 0.004741 -0.169423 0.006282
v 0.011444 -0.075296 0.005817
v -0.011441 -0.161572 0.006205
v -0.011441 -0.076249 0.000426
v -0.005311 -0.071013 0.000418
v 0.004741 -0.169519 0.000505
v -0.004738 -0.169519 0.000504
v 0.011444 -0.161657 0.000491
v 0.005313 -0.071013 0.000418
v 0.011444 -0.076249 0.000426
v -0.011441 -0.161657 0.000491
v -0.011443 -0.003536 1.310042
v -0.011443 -0.018536 1.310042
v -0.004740 -0.022955 1.310042
v 0.004740 -0.022955 1.310042
v 0.011443 -0.018536 1.310042
v 0.011443 -0.003536 1.310042
v 0.009608 -0.002195 1.310042
v -0.009608 -0.002195 1.310042
v -0.011443 -0.003536 1.340029
v -0.011443 -0.018536 1.340029
v -0.004740 -0.022955 1.340029
v 0.004740 -0.022955 1.340029
v 0.011443 -0.018536 1.340029
v 0.011443 -0.003536 1.340029
v 0.009608 -0.002195 1.340029
v -0.009608 -0.002195 1.340029
vn -0.0000 -0.0000 1.0000
vn -0.0000 -0.0009 1.0000
vn 0.0010 0.0005 1.0000
vn 0.0001 0.0003 1.0000
vn 0.7071 -0.7071 -0.0000
vn -0.7071 -0.7071 -0.0000
vn -0.7071 0.7071 -0.0000
vn 1.0000 -0.0000 -0.0000
vn -0.0000 -1.0000 -0.0000
vn -1.0000 -0.0000 -0.0000
vn -0.0000 1.0000 -0.0000
vn 0.7071 0.7071 -0.0000
vn -0.0000 -0.0000 -1.0000
vn 0.5900 0.8074 -0.0000
vn 0.5504 -0.8349 -0.0000
vn -0.5504 -0.8349 -0.0000
vn -0.5900 0.8074 -0.0000
vn -0.0000 -0.9050 0.4253
vn -0.7280 -0.6205 0.2916
vn 0.7611 -0.6487 -0.0000
vn -0.7611 -0.6487 -0.0000
vn -0.6496 -0.7603 -0.0000
vn 0.6496 -0.7603 -0.0000
vn -0.6438 -0.7535 0.1328
vn -0.0000 -0.9848 0.1735
vn -0.0000 -0.9848 0.1736
vn 0.7562 -0.6445 0.1136
vn 0.6438 -0.7536 0.1328
vn -0.7562 -0.6445 0.1136
vn 0.5891 0.7920 0.1601
vn -0.0000 -0.9398 0.3418
vn -0.6496 0.7145 -0.2599
vn -0.0000 0.9398 -0.3418
vn -0.7611 -0.6096 0.2217
vn 0.7611 -0.6096 0.2217
vn 0.6496 0.7145 -0.2599
vn -0.5891 0.7920 0.1601
vn -0.0000 0.9802 0.1982
vn 0.7611 -0.6106 0.2190
vn -0.7421 -0.6314 0.2251
vn -0.6439 0.7534 -0.1332
vn -0.0000 0.9847 -0.1741
vn 0.6438 0.7535 -0.1332
vn -0.0000 -0.9419 0.3359
vn 0.7605 -0.6492 0.0096
vn -0.7609 -0.6487 0.0108
vn -0.6438 0.7535 -0.1332
vn -0.0000 -0.9999 0.0166
vn -0.0003 -0.0008 -1.0000
vn -0.0000 -0.9347 0.3554
vn 0.5246 -0.7958 0.3026
vn -0.5246 -0.7958 0.3026
vn 0.0003 -0.0001 1.0000
vn 0.0006 -0.0006 1.0000
vn 0.0003 0.0008 1.0000
vn 0.7280 -0.6205 0.2916
vn -0.7561 -0.6445 0.1136
vn 0.7421 -0.6314 0.2251
vn -0.7611 -0.6106 0.2190
vn 0.6439 0.7534 -0.1332
vn 0.7609 -0.6487 0.0108
vn -0.7605 -0.6492 0.0096
vn -0.0000 -0.0017 -1.0000
vn 0.0010 -0.0008 -1.0000
vn 0.0008 -0.0008 -1.0000
vn -0.0004 -0.0009 -1.0000
vt 0.000000 0.000000
vt 0.000000 0.000000
vt 0.000000 0.000000
vt 0.000000 0.000000
vt 0.000000 0.000000
vt 0.000000 0.000000
vt 0.000000 0.000000
vt 0.000000 0.000000
vt 0.000000 0.000000
vt 0.000000 0.000000
vt 0.000000 0.000000
vt 0.000000 0.000000
vt 0.000000 0.000000
vt 0.000000 0.000000
vt 0.000000 0.000000
vt 0.000000 0.000000
vt 0.000000 0.000000
vt 0.000000 0.000000
vt 0.000000 0.000000
vt 0.000000 0.000000
vt 0.000000 0.000000
vt 0.000000 0.000000
vt 0.000000 0.000000
vt 0.000000 0.000000
vt 0.000000 0.000000
vt 0.000000 0.000000
vt 0.000000 0.000000
vt 0.000000 0.000000
vt 0.000000 0.000000
vt 0.000000 0.000000
vt 0.000000 0.000000
vt 0.000000 0.000000
vt 0.000000 0.000000
vt 0.000000 0.000000
vt 0.000000 0.000000
vt 0.000000 0.000000
vt 0.000000 0.000000
vt 0.000000 0.000000
vt 0.000000 0.000000
vt 0.000000 0.000000
vt 0.000000 0.000000
vt 0.000000 0.000000
vt 0.000000 0.000000
vt 0.000000 0.000000
vt 0.000000 0.000000
vt 0.000000 0.000000
vt 0.000000 0.000000
vt 0.000000 0.000000
vt 0.000000 0.000000
vt 0.000000 0.000000
vt 0.000000 0.000000
vt 0.000000 0.000000
vt 0.000000 0.000000
vt 0.000000 0.000000
vt 0.000000 0.000000
vt 0.000000 0.000000
vt 0.000000 0.000000
vt 0.000000 0.000000
vt 0.000000 0.000000
vt 0.000000 0.000000
vt 0.000000 0.000000
vt 0.000000 0.000000
vt 0.000000 0.000000
vt 0.000000 0.000000
vt 0.000000 0.000000
vt 0.000000 0.000000
vt 0.000000 0.000000
vt 0.000000 0.000000
vt 0.000000 0.000000
vt 0.000000 0.000000
vt 0.000000 0.000000
vt 0.000000 0.000000
vt 0.000000 0.000000
vt 0.000000 0.000000
vt 0.000000 0.000000
vt 0.000000 0.000000
vt 0.000000 0.000000
vt 0.000000 0.000000
vt 0.000000 0.000000
vt 0.000000 0.000000
vt 0.000000 0.000000
vt 0.000000 0.000000
vt 0.000000 0.000000
vt 0.000000 0.000000
vt 0.000000 0.000000
vt 0.000000 0.000000
vt 0.000000 0.000000
vt 0.000000 0.000000
vt 0.000000 0.000000
vt 0.000000 0.000000
vt 0.000000 0.000000
vt 0.000000 0.000000
vt 0.000000 0.000000
vt 0.000000 0.000000
vt 0.000000 0.000000
vt 0.000000 0.000000
vt 0.000000 0.000000
vt 0.000000 0.000000
vt 0.000000 0.000000
vt 0.000000 0.000000
vt 0.000000 0.000000
vt 0.000000 0.000000
vt 0.000000 0.000000
vt 0.000000 0.000000
vt 0.000000 0.000000
vt 0.000000 0.000000
vt 0.000000 0.000000
vt 0.000000 0.000000
vt 0.000000 0.000000
vt 0.000000 0.000000
vt 0.000000 0.000000
vt 0.000000 0.000000
vt 0.000000 0.000000
vt 0.000000 0.000000
vt 0.000000 0.000000
vt 0.000000 0.000000
vt 0.000000 0.000000
vt 0.000000 0.000000
vt 0.000000 0.000000
vt 0.000000 0.000000
vt 0.000000 0.000000
vt 0.000000 0.000000
vt 0.000000 0.000000
vt 0.000000 0.000000
s 0
f 4/4/1 11/11/1 12/12/1
f 1/1/2 10/10/2 2/2/2
f 1/1/1 16/16/1 9/9/1
f 7/7/1 14/14/1 15/15/1
f 4/4/3 13/13/3 5/5/3
f 2/2/4 11/11/4 3/3/4
f 8/8/1 15/15/1 16/16/1
f 5/5/1 14/14/1 6/6/1
f 14/14/5 23/23/5 15/15/5
f 12/12/6 21/21/6 13/13/6
f 10/10/7 19/19/7 11/11/7
f 16/16/8 23/23/8 24/24/8
f 14/14/9 21/21/9 22/22/9
f 11/11/10 20/20/10 12/12/10
f 9/9/11 18/18/11 10/10/11
f 16/16/12 17/17/12 9/9/12
f 23/23/13 21/21/13 19/19/13
f 27/27/9 36/36/9 28/28/9
f 25/25/10 34/34/10 26/26/10
f 30/30/14 39/39/14 31/31/14
f 28/28/15 37/37/15 29/29/15
f 26/26/16 35/35/16 27/27/16
f 32/32/17 33/33/17 25/25/17
f 29/29/8 38/38/8 30/30/8
f 40/40/17 41/41/17 33/33/17
f 37/37/8 46/46/8 38/38/8
f 35/35/18 44/44/18 36/36/18
f 33/33/10 42/42/10 34/34/10
f 38/38/14 47/47/14 39/39/14
f 36/36/15 45/45/15 37/37/15
f 35/35/19 42/42/19 43/43/19
f 48/48/17 49/49/17 41/41/17
f 46/46/8 53/53/8 54/54/8
f 43/43/9 52/52/9 44/44/9
f 41/41/10 50/50/10 42/42/10
f 46/46/14 55/55/14 47/47/14
f 44/44/20 53/53/20 45/45/20
f 42/42/21 51/51/21 43/43/21
f 60/60/8 63/63/8 53/53/8
f 51/51/9 59/59/9 52/52/9
f 53/53/20 59/59/20 60/60/20
f 50/50/21 58/58/21 51/51/21
f 61/61/13 64/64/13 54/54/13
f 63/63/22 68/68/22 67/67/22
f 50/50/10 65/65/10 57/57/10
f 61/61/23 66/66/23 62/62/23
f 62/62/9 68/68/9 64/64/9
f 57/57/10 73/73/10 69/69/10
f 67/67/24 76/76/24 75/75/24
f 58/58/25 71/71/25 59/59/25
f 60/60/8 75/75/8 67/67/8
f 66/66/26 76/76/26 68/68/26
f 60/60/27 71/71/27 72/72/27
f 65/65/28 74/74/28 66/66/28
f 58/58/29 69/69/29 70/70/29
f 88/87/30 81/80/30 80/79/30
f 70/70/31 82/81/31 71/71/31
f 73/73/32 85/84/32 78/77/32
f 76/76/33 85/84/33 74/74/33
f 72/72/8 80/79/8 75/75/8
f 70/70/34 79/78/34 84/83/34
f 72/72/35 82/81/35 83/82/35
f 75/75/36 81/80/36 76/76/36
f 69/69/10 78/77/10 79/78/10
f 90/89/35 83/82/35 82/81/35
f 87/86/34 84/83/34 79/78/34
f 86/85/37 85/84/37 93/92/37
f 90/89/31 84/83/31 92/91/31
f 87/86/10 78/77/10 86/85/10
f 93/92/38 81/80/38 89/88/38
f 91/90/8 80/79/8 83/82/8
f 90/89/39 96/95/39 91/90/39
f 92/91/40 101/100/40 94/93/40
f 93/92/41 95/94/41 86/85/41
f 87/86/10 95/94/10 101/100/10
f 91/90/8 100/99/8 88/87/8
f 89/88/42 98/97/42 93/92/42
f 89/88/43 100/99/43 97/96/43
f 92/91/44 99/98/44 90/89/44
f 99/98/45 106/105/45 96/95/45
f 94/93/46 109/108/46 105/104/46
f 95/94/47 103/102/47 102/101/47
f 101/100/10 102/101/10 109/108/10
f 96/95/8 108/107/8 100/99/8
f 97/96/42 103/102/42 98/97/42
f 100/99/43 107/106/43 97/96/43
f 94/93/48 104/103/48 99/98/48
f 102/101/49 107/106/49 106/105/49
f 25/25/17 117/116/17 32/32/17
f 30/30/8 114/113/8 29/29/8
f 27/27/50 113/112/50 112/111/50
f 25/25/10 111/110/10 110/109/10
f 31/31/14 115/114/14 30/30/14
f 29/29/51 113/112/51 28/28/51
f 26/26/52 112/111/52 111/110/52
f 110/109/17 125/124/17 117/116/17
f 115/114/8 122/121/8 114/113/8
f 112/111/9 121/120/9 120/119/9
f 111/110/10 118/117/10 110/109/10
f 116/115/14 123/122/14 115/114/14
f 114/113/15 121/120/15 113/112/15
f 112/111/16 119/118/16 111/110/16
f 4/4/1 3/3/1 11/11/1
f 1/1/53 9/9/53 10/10/53
f 1/1/1 8/8/1 16/16/1
f 7/7/1 6/6/1 14/14/1
f 4/4/1 12/12/1 13/13/1
f 2/2/54 10/10/54 11/11/54
f 8/8/1 7/7/1 15/15/1
f 5/5/55 13/13/55 14/14/55
f 14/14/5 22/22/5 23/23/5
f 12/12/6 20/20/6 21/21/6
f 10/10/7 18/18/7 19/19/7
f 16/16/8 15/15/8 23/23/8
f 14/14/9 13/13/9 21/21/9
f 11/11/10 19/19/10 20/20/10
f 9/9/11 17/17/11 18/18/11
f 16/16/12 24/24/12 17/17/12
f 19/19/13 18/18/13 17/17/13
f 17/17/13 24/24/13 23/23/13
f 23/23/13 22/22/13 21/21/13
f 21/21/13 20/20/13 19/19/13
f 19/19/13 17/17/13 23/23/13
f 27/27/9 35/35/9 36/36/9
f 25/25/10 33/33/10 34/34/10
f 30/30/14 38/38/14 39/39/14
f 28/28/15 36/36/15 37/37/15
f 26/26/16 34/34/16 35/35/16
f 32/32/17 40/40/17 33/33/17
f 29/29/8 37/37/8 38/38/8
f 40/40/17 48/48/17 41/41/17
f 37/37/8 45/45/8 46/46/8
f 35/35/18 43/43/18 44/44/18
f 33/33/10 41/41/10 42/42/10
f 38/38/14 46/46/14 47/47/14
f 36/36/56 44/44/56 45/45/56
f 35/35/16 34/34/16 42/42/16
f 48/48/17 56/56/17 49/49/17
f 46/46/8 45/45/8 53/53/8
f 43/43/9 51/51/9 52/52/9
f 41/41/10 49/49/10 50/50/10
f 46/46/14 54/54/14 55/55/14
f 44/44/20 52/52/20 53/53/20
f 42/42/21 50/50/21 51/51/21
f 60/60/8 67/67/8 63/63/8
f 51/51/9 58/58/9 59/59/9
f 53/53/20 52/52/20 59/59/20
f 50/50/21 57/57/21 58/58/21
f 54/54/13 49/49/13 61/61/13
f 61/61/13 62/62/13 64/64/13
f 64/64/13 63/63/13 54/54/13
f 63/63/22 64/64/22 68/68/22
f 50/50/10 61/61/10 65/65/10
f 61/61/23 65/65/23 66/66/23
f 62/62/9 66/66/9 68/68/9
f 57/57/10 65/65/10 73/73/10
f 67/67/24 68/68/24 76/76/24
f 58/58/26 70/70/26 71/71/26
f 60/60/8 72/72/8 75/75/8
f 66/66/26 74/74/26 76/76/26
f 60/60/27 59/59/27 71/71/27
f 65/65/28 73/73/28 74/74/28
f 58/58/57 57/57/57 69/69/57
f 88/87/30 89/88/30 81/80/30
f 70/70/31 84/83/31 82/81/31
f 73/73/32 74/74/32 85/84/32
f 76/76/33 81/80/33 85/84/33
f 72/72/8 83/82/8 80/79/8
f 70/70/34 69/69/34 79/78/34
f 72/72/35 71/71/35 82/81/35
f 75/75/36 80/79/36 81/80/36
f 69/69/10 73/73/10 78/77/10
f 90/89/35 91/90/35 83/82/35
f 87/86/34 92/91/34 84/83/34
f 86/85/37 78/77/37 85/84/37
f 90/89/31 82/81/31 84/83/31
f 87/86/10 79/78/10 78/77/10
f 93/92/38 85/84/38 81/80/38
f 91/90/8 88/87/8 80/79/8
f 90/89/58 99/98/58 96/95/58
f 92/91/59 87/86/59 101/100/59
f 93/92/47 98/97/47 95/94/47
f 87/86/10 86/85/10 95/94/10
f 91/90/8 96/95/8 100/99/8
f 89/88/42 97/96/42 98/97/42
f 89/88/60 88/87/60 100/99/60
f 92/91/44 94/93/44 99/98/44
f 99/98/61 104/103/61 106/105/61
f 94/93/62 101/100/62 109/108/62
f 95/94/47 98/97/47 103/102/47
f 101/100/10 95/94/10 102/101/10
f 96/95/8 106/105/8 108/107/8
f 97/96/42 107/106/42 103/102/42
f 100/99/43 108/107/43 107/106/43
f 94/93/48 105/104/48 104/103/48
f 106/105/63 104/103/63 105/104/63
f 105/104/64 109/108/64 102/101/64
f 102/101/63 103/102/63 107/106/63
f 107/106/65 108/107/65 106/105/65
f 106/105/66 105/104/66 102/101/66
f 25/25/17 110/109/17 117/116/17
f 30/30/8 115/114/8 114/113/8
f 27/27/50 28/28/50 113/112/50
f 25/25/10 26/26/10 111/110/10
f 31/31/14 116/115/14 115/114/14
f 29/29/51 114/113/51 113/112/51
f 26/26/52 27/27/52 112/111/52
f 110/109/17 118/117/17 125/124/17
f 115/114/8 123/122/8 122/121/8
f 112/111/9 113/112/9 121/120/9
f 111/110/10 119/118/10 118/117/10
f 116/115/14 124/123/14 123/122/14
f 114/113/15 122/121/15 121/120/15
f 112/111/16 120/119/16 119/118/16
