# Blender 3.3.0
# www.blender.org
mtllib materials.mtl
o Circle
v 0.003061 0.007391 1.499998
v -0.003061 0.007391 1.499998
v -0.007391 0.003061 1.500000
v -0.007391 -0.003061 1.500000
v -0.003061 -0.007391 1.499998
v 0.003061 -0.007391 1.499998
v 0.007391 -0.003061 1.499998
v 0.007391 0.003061 1.499998
v 0.004005 0.009668 1.499998
v -0.004005 0.009668 1.500000
v -0.009668 0.004005 1.500000
v -0.009668 -0.004005 1.500000
v -0.004005 -0.009668 1.500000
v 0.004005 -0.009668 1.499998
v 0.009668 -0.004005 1.499998
v 0.009668 0.004005 1.499998
v 0.004005 0.009668 0.420000
v -0.004005 0.009668 0.420000
v -0.009668 0.004005 0.420000
v -0.009668 -0.004005 0.420000
v -0.004005 -0.009668 0.420000
v 0.004005 -0.009668 0.420000
v 0.009668 -0.004005 0.420000
v 0.009668 0.004005 0.420000
v -0.011443 -0.003536 1.300000
v -0.011443 -0.022355 1.300000
v -0.004740 -0.026774 1.300000
v 0.004740 -0.026774 1.300000
v 0.011443 -0.022355 1.300000
v 0.011443 -0.003536 1.300000
v 0.009608 -0.002195 1.300000
v -0.009608 -0.002195 1.300000
v -0.011443 -0.003536 0.803666
v -0.011443 -0.022355 0.803666
v -0.004740 -0.026774 0.803666
v 0.004740 -0.026774 0.803666
v 0.011443 -0.022355 0.803666
v 0.011443 -0.003536 0.803666
v 0.009608 -0.002195 0.803666
v -0.009608 -0.002195 0.803666
v -0.011443 -0.003536 0.796334
v -0.011443 -0.022355 0.796334
v -0.004740 -0.030220 0.796334
v 0.004740 -0.030220 0.796334
v 0.011443 -0.022355 0.796334
v 0.011443 -0.003536 0.796334
v 0.009608 -0.002195 0.796334
v -0.009608 -0.002195 0.796334
v -0.011443 -0.003536 0.420000
v -0.011443 -0.022355 0.420000
v -0.004740 -0.030220 0.420000
v 0.004740 -0.030220 0.420000
v 0.011443 -0.022355 0.420000
v 0.011443 -0.003536 0.420000
v 0.009608 -0.002195 0.420000
v -0.009608 -0.002195 0.420000
v -0.011443 -0.022355 0.400000
v -0.004740 -0.030220 0.400000
v 0.004740 -0.030220 0.400000
v 0.011443 -0.022355 0.400000
v -0.011443 0.004805 0.420000
v -0.005312 0.010043 0.420000
v 0.011443 0.004805 0.420000
v 0.005312 0.010043 0.420000
v -0.011443 0.004805 0.400000
v -0.005312 0.010043 0.400000
v 0.011443 0.004805 0.400000
v 0.005312 0.010043 0.400000
v -0.011443 -0.025020 0.384881
v -0.004740 -0.032411 0.387570
v 0.004740 -0.032411 0.387570
v 0.011443 -0.025020 0.384881
v -0.011443 0.000780 0.377156
v -0.005312 0.005702 0.375365
v 0.011443 0.000780 0.377156
v 0.005312 0.005702 0.375365
v -0.011442 -0.043009 0.256774
v -0.011442 -0.068809 0.264499
v 0.011443 -0.043009 0.256774
v 0.005312 -0.038087 0.254983
v 0.004740 -0.076200 0.267188
v 0.011443 -0.068809 0.264499
v -0.004739 -0.076200 0.267187
v -0.005312 -0.038087 0.254983
v -0.011442 -0.036562 0.224890
v -0.011442 -0.078298 0.238412
v 0.011443 -0.036562 0.224890
v 0.005312 -0.031640 0.223099
v 0.004740 -0.085689 0.241101
v 0.011443 -0.078298 0.238412
v -0.004739 -0.085689 0.241100
v -0.005312 -0.031640 0.223099
v -0.004738 -0.169423 0.006282
v -0.011441 -0.075296 0.005817
v 0.011444 -0.161572 0.006205
v 0.005313 -0.070068 0.005765
v -0.005311 -0.070068 0.005765
v 0.004741 -0.169423 0.006282
v 0.011444 -0.075296 0.005817
v -0.011441 -0.161572 0.006205
v -0.011441 -0.076249 0.000426
v -0.005311 -0.071013 0.000418
v 0.004741 -0.169519 0.000505
v -0.004738 -0.169519 0.000504
v 0.011444 -0.161657 0.000491
v 0.005313 -0.071013 0.000418
v 0.011444 -0.076249 0.000426
v -0.011441 -0.161657 0.000491
v -0.011443 -0.003536 1.310042
v -0.011443 -0.018536 1.310042
v -0.004740 -0.022955 1.310042
v 0.004740 -0.022955 1.310042
v 0.011443 -0.018536 1.310042
v 0.011443 -0.003536 1.310042
v 0.009608 -0.002195 1.310042
v -0.009608 -0.002195 1.310042
v -0.011443 -0.003536 1.340029
v -0.011443 -0.018536 1.340029
v -0.004740 -0.022955 1.340029
v 0.004740 -0.022955 1.340029
v 0.011443 -0.018536 1.340029
v 0.011443 -0.003536 1.340029
v 0.009608 -0.002195 1.340029
v -0.009608 -0.002195 1.340029
vn -0.0000 -0.0000 1.0000
vn -0.0000 -0.0009 1.0000
vn 0.0010 0.0005 1.0000
vn 0.0001 0.0003 1.0000
vn 0.7071 -0.7071 -0.0000
vn -0.7071 -0.7071 -0.0000
vn -0.7071 0.7071 -0.0000
vn 1.0000 -0.0000 -0.0000
vn -0.0000 -1.0000 -0.0000
vn -1.0000 -0.0000 -0.0000
vn -0.0000 1.0000 -0.0000
vn 0.7071 0.7071 -0.0000
vn -0.0000 -0.0000 -1.0000
vn 0.5900 0.8074 -0.0000
vn 0.5504 -0.8349 -0.0000
vn -0.5504 -0.8349 -0.0000
vn -0.5900 0.8074 -0.0000
vn -0.0000 -0.9050 0.4253
vn -0.7280 -0.6205 0.2916
vn 0.7611 -0.6487 -0.0000
vn -0.7611 -0.6487 -0.0000
vn -0.6496 -0.7603 -0.0000
vn 0.6496 -0.7603 -0.0000
vn -0.6438 -0.7535 0.1328
vn -0.0000 -0.9848 0.1735
vn -0.0000 -0.9848 0.1736
vn 0.7562 -0.6445 0.1136
vn 0.6438 -0.7536 0.1328
vn -0.7562 -0.6445 0.1136
vn 0.5891 0.7920 0.1601
vn -0.0000 -0.9398 0.3418
vn -0.6496 0.7145 -0.2599
vn -0.0000 0.9398 -0.3418
vn -0.7611 -0.6096 0.2217
vn 0.7611 -0.6096 0.2217
vn 0.6496 0.7145 -0.2599
vn -0.5891 0.7920 0.1601
vn -0.0000 0.9802 0.1982
vn 0.7611 -0.6106 0.2190
vn -0.7421 -0.6314 0.2251
vn -0.6439 0.7534 -0.1332
vn -0.0000 0.9847 -0.1741
vn 0.6438 0.7535 -0.1332
vn -0.0000 -0.9419 0.3359
vn 0.7605 -0.6492 0.0096
vn -0.7609 -0.6487 0.0108
vn -0.6438 0.7535 -0.1332
vn -0.0000 -0.9999 0.0166
vn -0.0000 -0.0008 -1.0000
vn -0.0000 -0.9347 0.3554
vn 0.5246 -0.7958 0.3026
vn -0.5246 -0.7958 0.3026
vn 0.0003 -0.0001 1.0000
vn 0.0006 -0.0006 1.0000
vn 0.0003 0.0008 1.0000
vn 0.7280 -0.6205 0.2916
vn -0.7561 -0.6445 0.1136
vn 0.7421 -0.6314 0.2251
vn -0.7611 -0.6106 0.2190
vn 0.6439 0.7534 -0.1332
vn 0.7609 -0.6487 0.0108
vn -0.7605 -0.6492 0.0096
vn -0.0000 -0.0017 -1.0000
vn -0.0000 -0.0016 -1.0000
vt 0.274821 0.139120
vt 0.278029 0.142327
vt 0.278029 0.146864
vt 0.274821 0.150072
vt 0.270284 0.150072
vt 0.267077 0.146864
vt 0.267077 0.142327
vt 0.270284 0.139120
vt 0.236564 0.800181
vt 0.275520 0.137432
vt 0.253521 0.796162
vt 0.259455 0.796164
vt 0.279716 0.141628
vt 0.207911 0.800182
vt 0.279716 0.147563
vt 0.212107 0.800182
vt 0.275520 0.151759
vt 0.218042 0.800182
vt 0.222238 0.800182
vt 0.269586 0.151759
vt 0.265389 0.000000
vt 0.265389 0.147563
vt 0.222238 0.800181
vt 0.259455 0.000001
vt 0.265389 0.141628
vt 0.226434 0.800181
vt 0.269586 0.137432
vt 0.232368 0.800181
vt 0.253521 0.000000
vt 0.236564 0.000000
vt 0.265389 0.133236
vt 0.207911 0.000000
vt 0.259455 0.000000
vt 0.269585 0.137432
vt 0.212107 0.000000
vt 0.275520 0.137432
vt 0.218042 0.000000
vt 0.279716 0.133236
vt 0.222238 0.000000
vt 0.265389 0.790285
vt 0.279716 0.127302
vt 0.259455 0.790285
vt 0.222238 0.000000
vt 0.275520 0.123106
vt 0.226434 0.000000
vt 0.269585 0.123106
vt 0.232368 0.000000
vt 0.265389 0.127302
vt 0.283705 0.029608
vt 0.176578 0.970530
vt 0.190433 0.968963
vt 0.207911 0.029734
vt 0.202945 0.030248
vt 0.195921 0.030248
vt 0.094955 0.031037
vt 0.190955 0.029734
vt 0.282345 0.648726
vt 0.081100 0.029470
vt 0.283705 0.648825
vt 0.285064 0.029509
vt 0.283705 0.395500
vt 0.135239 0.605123
vt 0.149094 0.603556
vt 0.207911 0.392924
vt 0.202945 0.393437
vt 0.195921 0.393437
vt 0.190955 0.392924
vt 0.053617 0.396445
vt 0.039761 0.394877
vt 0.282345 0.282834
vt 0.283705 0.282934
vt 0.285064 0.395400
vt 0.283705 0.400905
vt 0.134628 0.599725
vt 0.207911 0.398290
vt 0.148483 0.598157
vt 0.154274 0.597502
vt 0.202945 0.399203
vt 0.195921 0.399203
vt 0.058796 0.402498
vt 0.190955 0.398290
vt 0.053006 0.401843
vt 0.039151 0.400275
vt 0.282345 0.277429
vt 0.283705 0.277528
vt 0.285064 0.400806
vt 0.283705 0.678334
vt 0.103284 0.322663
vt 0.275450 0.168715
vt 0.117140 0.321095
vt 0.122930 0.320440
vt 0.202945 0.674584
vt 0.195921 0.674583
vt 0.027452 0.679560
vt 0.021662 0.678905
vt 0.007807 0.677337
vt 0.282345 0.000000
vt 0.275450 0.151759
vt 0.283705 0.000099
vt 0.285064 0.678235
vt 0.115474 0.306371
vt 0.202945 0.689219
vt 0.121264 0.305716
vt 0.195921 0.689218
vt 0.025786 0.694284
vt 0.019996 0.693629
vt 0.269270 0.168715
vt 0.097143 0.323358
vt 0.265389 0.105541
vt 0.265389 0.164173
vt 0.269932 0.106150
vt 0.269270 0.151759
vt 0.001666 0.676642
vt 0.282345 0.105541
vt 0.265389 0.156301
vt 0.277803 0.106150
vt 0.095478 0.308633
vt 0.265389 0.090906
vt 0.269932 0.091515
vt 0.000000 0.691367
vt 0.282345 0.090906
vt 0.277803 0.091515
vt 0.116176 0.295018
vt 0.202945 0.698569
vt 0.121841 0.296382
vt 0.195921 0.698569
vt 0.026364 0.703618
vt 0.020698 0.704982
vt 0.265389 0.073722
vt 0.236565 0.000000
vt 0.096539 0.291480
vt 0.269932 0.072984
vt 0.241107 0.000955
vt 0.282345 0.073722
vt 0.001061 0.708520
vt 0.253521 0.000000
vt 0.277803 0.072984
vt 0.248979 0.000955
vt 0.236565 0.091992
vt 0.118750 0.199206
vt 0.138388 0.202744
vt 0.253521 0.091992
vt 0.023273 0.800794
vt 0.248978 0.092947
vt 0.048575 0.795892
vt 0.195921 0.791745
vt 0.042910 0.797256
vt 0.144053 0.204108
vt 0.202944 0.791745
vt 0.241107 0.092947
vt 0.236564 0.115018
vt 0.111349 0.176269
vt 0.143201 0.182748
vt 0.015871 0.823731
vt 0.253521 0.115018
vt 0.248978 0.115973
vt 0.195921 0.811936
vt 0.053389 0.815888
vt 0.047723 0.817252
vt 0.148866 0.184112
vt 0.202944 0.811936
vt 0.241107 0.115973
vt 0.190955 0.004262
vt 0.202943 0.993491
vt 0.236565 0.279389
vt 0.121619 0.011759
vt 0.089691 0.995141
vt 0.248978 0.279039
vt 0.241107 0.279039
vt 0.195920 0.993491
vt 0.095478 0.995738
vt 0.026141 0.988241
vt 0.253521 0.279389
vt 0.185169 0.004859
vt 0.236565 0.283433
vt 0.121872 0.007711
vt 0.282345 0.069104
vt 0.241107 0.283051
vt 0.277803 0.072984
vt 0.095067 1.000000
vt 0.195920 0.997730
vt 0.270356 0.000000
vt 0.190544 0.000000
vt 0.202943 0.997730
vt 0.277379 0.000000
vt 0.089278 0.999355
vt 0.265389 0.005825
vt 0.248978 0.283051
vt 0.269932 0.072984
vt 0.026394 0.992289
vt 0.253521 0.283433
vt 0.265389 0.069104
vt 0.184755 0.000645
vt 0.282345 0.005825
vt 0.177414 0.977924
vt 0.283705 0.022205
vt 0.207911 0.021942
vt 0.188458 0.976674
vt 0.202945 0.022456
vt 0.195921 0.022456
vt 0.092980 0.023326
vt 0.190955 0.021942
vt 0.282345 0.656129
vt 0.081936 0.022076
vt 0.283705 0.656228
vt 0.285064 0.022106
vt 0.283705 0.000099
vt 0.179911 1.000000
vt 0.279777 0.123106
vt 0.190955 0.998751
vt 0.207911 0.000000
vt 0.268663 0.123106
vt 0.202945 0.000513
vt 0.265389 0.118139
vt 0.195921 0.000513
vt 0.265389 0.111116
vt 0.095478 0.001249
vt 0.190955 0.000000
vt 0.268663 0.106150
vt 0.084434 0.000000
vt 0.282345 0.678235
vt 0.279777 0.106150
vt 0.283705 0.678334
vt 0.280771 0.107509
vt 0.285064 0.000000
vt 0.280771 0.121747
s 0
usemtl none
f 4/4/1 11/15/1 12/17/1
f 1/1/2 10/13/2 2/2/2
f 1/1/1 16/27/1 9/10/1
f 7/7/1 14/22/1 15/25/1
f 4/4/3 13/20/3 5/5/3
f 2/2/4 11/15/4 3/3/4
f 8/8/1 15/25/1 16/27/1
f 5/5/1 14/22/1 6/6/1
f 14/23/5 23/45/5 15/26/5
f 12/18/6 21/39/6 13/19/6
f 10/14/7 19/35/7 11/16/7
f 16/28/8 23/45/8 24/47/8
f 14/24/9 21/40/9 22/42/9
f 11/16/10 20/37/10 12/18/10
f 9/11/11 18/33/11 10/12/11
f 16/28/12 17/30/12 9/9/12
f 23/46/13 21/41/13 19/36/13
f 27/53/9 36/66/9 28/54/9
f 25/50/10 34/63/10 26/51/10
f 30/57/14 39/71/14 31/59/14
f 28/54/15 37/67/15 29/56/15
f 26/52/16 35/65/16 27/53/16
f 32/60/17 33/61/17 25/49/17
f 29/55/8 38/69/8 30/58/8
f 40/72/17 41/73/17 33/61/17
f 37/68/8 46/83/8 38/69/8
f 35/65/18 44/79/18 36/66/18
f 33/62/10 42/76/10 34/63/10
f 38/70/14 47/85/14 39/71/14
f 36/66/15 45/81/15 37/67/15
f 35/65/19 42/75/19 43/78/19
f 48/86/17 49/87/17 41/73/17
f 46/83/8 53/95/8 54/96/8
f 43/78/9 52/93/9 44/79/9
f 41/74/10 50/90/10 42/76/10
f 46/84/14 55/99/14 47/85/14
f 44/80/20 53/95/20 45/82/20
f 42/76/21 51/91/21 43/77/21
f 60/106/8 63/113/8 53/95/8
f 51/92/9 59/104/9 52/93/9
f 53/95/20 59/105/20 60/106/20
f 50/90/21 58/103/21 51/91/21
f 64/115/13 63/112/13 54/98/13
f 63/114/22 68/122/22 67/121/22
f 50/90/10 65/117/10 57/101/10
f 61/109/23 66/119/23 62/111/23
f 62/111/9 68/122/9 64/116/9
f 57/101/10 73/131/10 69/123/10
f 67/121/24 76/137/24 75/134/24
f 58/102/25 71/126/25 59/104/25
f 60/106/8 75/135/8 67/120/8
f 66/119/26 76/137/26 68/122/26
f 60/106/27 71/127/27 72/128/27
f 65/118/28 74/132/28 66/119/28
f 58/103/29 69/123/29 70/125/29
f 87/155/30 80/144/30 79/142/30
f 70/124/31 81/146/31 71/126/31
f 73/130/32 84/150/32 77/139/32
f 76/138/33 84/150/33 74/133/33
f 72/128/8 79/143/8 75/135/8
f 70/125/34 78/141/34 83/148/34
f 72/128/35 81/145/35 82/147/35
f 75/136/36 80/144/36 76/138/36
f 69/123/10 77/140/10 78/141/10
f 89/158/35 82/147/35 81/145/35
f 86/153/34 83/148/34 78/141/34
f 85/151/37 84/150/37 92/162/37
f 89/157/31 83/149/31 91/161/31
f 86/153/10 77/140/10 85/152/10
f 92/162/38 80/144/38 88/156/38
f 90/159/8 79/143/8 82/147/8
f 89/158/39 95/167/39 90/159/39
f 91/160/40 100/174/40 93/163/40
f 92/162/41 94/165/41 85/151/41
f 86/153/10 94/166/10 100/174/10
f 90/159/8 99/172/8 87/154/8
f 88/156/42 97/169/42 92/162/42
f 88/156/43 99/173/43 96/168/43
f 91/161/44 98/170/44 89/157/44
f 98/171/45 105/186/45 95/167/45
f 93/163/46 108/193/46 104/183/46
f 94/165/47 102/178/47 101/175/47
f 100/174/10 101/176/10 108/193/10
f 95/167/8 107/190/8 99/172/8
f 96/168/42 102/178/42 97/169/42
f 99/173/43 106/188/43 96/168/43
f 93/164/48 103/181/48 98/170/48
f 107/192/49 105/187/49 101/177/49
f 25/49/17 116/206/17 32/60/17
f 30/58/8 113/201/8 29/55/8
f 27/53/50 112/200/50 111/199/50
f 25/50/10 110/198/10 109/195/10
f 31/59/14 114/203/14 30/57/14
f 29/56/51 112/200/51 28/54/51
f 26/52/52 111/199/52 110/197/52
f 109/196/17 124/225/17 116/206/17
f 114/204/8 121/217/8 113/201/8
f 111/199/9 120/215/9 119/213/9
f 110/198/10 117/208/10 109/195/10
f 115/205/14 122/221/14 114/203/14
f 113/202/15 120/215/15 112/200/15
f 111/199/16 118/211/16 110/197/16
f 123/224/1 124/226/1 119/214/1
f 4/4/1 3/3/1 11/15/1
f 1/1/53 9/10/53 10/13/53
f 1/1/1 8/8/1 16/27/1
f 7/7/1 6/6/1 14/22/1
f 4/4/1 12/17/1 13/20/1
f 2/2/54 10/13/54 11/15/54
f 8/8/1 7/7/1 15/25/1
f 5/5/55 13/20/55 14/22/55
f 14/23/5 22/43/5 23/45/5
f 12/18/6 20/37/6 21/39/6
f 10/14/7 18/32/7 19/35/7
f 16/28/8 15/26/8 23/45/8
f 14/24/9 13/21/9 21/40/9
f 11/16/10 19/35/10 20/37/10
f 9/11/11 17/29/11 18/33/11
f 16/28/12 24/47/12 17/30/12
f 19/36/13 18/34/13 23/46/13
f 18/34/13 17/31/13 23/46/13
f 17/31/13 24/48/13 23/46/13
f 23/46/13 22/44/13 21/41/13
f 21/41/13 20/38/13 19/36/13
f 27/53/9 35/65/9 36/66/9
f 25/50/10 33/62/10 34/63/10
f 30/57/14 38/70/14 39/71/14
f 28/54/15 36/66/15 37/67/15
f 26/52/16 34/64/16 35/65/16
f 32/60/17 40/72/17 33/61/17
f 29/55/8 37/68/8 38/69/8
f 40/72/17 48/86/17 41/73/17
f 37/68/8 45/82/8 46/83/8
f 35/65/18 43/78/18 44/79/18
f 33/62/10 41/74/10 42/76/10
f 38/70/14 46/84/14 47/85/14
f 36/66/56 44/79/56 45/81/56
f 35/65/16 34/64/16 42/75/16
f 48/86/17 56/100/17 49/87/17
f 46/83/8 45/82/8 53/95/8
f 43/78/9 51/92/9 52/93/9
f 41/74/10 49/88/10 50/90/10
f 46/84/14 54/97/14 55/99/14
f 44/80/20 52/94/20 53/95/20
f 42/76/21 50/90/21 51/91/21
f 60/106/8 67/120/8 63/113/8
f 51/92/9 58/102/9 59/104/9
f 53/95/20 52/94/20 59/105/20
f 50/90/21 57/101/21 58/103/21
f 54/98/13 49/89/13 64/115/13
f 49/89/13 61/107/13 62/110/13
f 64/115/13 49/89/13 62/110/13
f 63/114/22 64/116/22 68/122/22
f 50/90/10 61/108/10 65/117/10
f 61/109/23 65/118/23 66/119/23
f 62/111/9 66/119/9 68/122/9
f 57/101/10 65/117/10 73/131/10
f 67/121/24 68/122/24 76/137/24
f 58/102/26 70/124/26 71/126/26
f 60/106/8 72/128/8 75/135/8
f 66/119/26 74/132/26 76/137/26
f 60/106/27 59/105/27 71/127/27
f 65/118/28 73/129/28 74/132/28
f 58/103/57 57/101/57 69/123/57
f 87/155/30 88/156/30 80/144/30
f 70/124/31 83/149/31 81/146/31
f 73/130/32 74/133/32 84/150/32
f 76/138/33 80/144/33 84/150/33
f 72/128/8 82/147/8 79/143/8
f 70/125/34 69/123/34 78/141/34
f 72/128/35 71/127/35 81/145/35
f 75/136/36 79/142/36 80/144/36
f 69/123/10 73/131/10 77/140/10
f 89/158/35 90/159/35 82/147/35
f 86/153/34 91/160/34 83/148/34
f 85/151/37 77/139/37 84/150/37
f 89/157/31 81/146/31 83/149/31
f 86/153/10 78/141/10 77/140/10
f 92/162/38 84/150/38 80/144/38
f 90/159/8 87/154/8 79/143/8
f 89/158/58 98/171/58 95/167/58
f 91/160/59 86/153/59 100/174/59
f 92/162/47 97/169/47 94/165/47
f 86/153/10 85/152/10 94/166/10
f 90/159/8 95/167/8 99/172/8
f 88/156/42 96/168/42 97/169/42
f 88/156/60 87/155/60 99/173/60
f 91/161/44 93/164/44 98/170/44
f 98/171/61 103/180/61 105/186/61
f 93/163/62 100/174/62 108/193/62
f 94/165/47 97/169/47 102/178/47
f 100/174/10 94/166/10 101/176/10
f 95/167/8 105/186/8 107/190/8
f 96/168/42 106/188/42 102/178/42
f 99/173/43 107/191/43 106/188/43
f 93/164/48 104/184/48 103/181/48
f 105/187/63 103/182/63 104/185/63
f 104/185/64 108/194/64 105/187/64
f 108/194/49 101/177/49 105/187/49
f 101/177/63 102/179/63 106/189/63
f 106/189/64 107/192/64 101/177/64
f 25/49/17 109/196/17 116/206/17
f 30/58/8 114/204/8 113/201/8
f 27/53/50 28/54/50 112/200/50
f 25/50/10 26/51/10 110/198/10
f 31/59/14 115/205/14 114/203/14
f 29/56/51 113/202/51 112/200/51
f 26/52/52 27/53/52 111/199/52
f 109/196/17 117/207/17 124/225/17
f 114/204/8 122/220/8 121/217/8
f 111/199/9 112/200/9 120/215/9
f 110/198/10 118/210/10 117/208/10
f 115/205/14 123/223/14 122/221/14
f 113/202/15 121/218/15 120/215/15
f 111/199/16 119/213/16 118/211/16
f 117/209/1 118/212/1 124/226/1
f 118/212/1 119/214/1 124/226/1
f 119/214/1 120/216/1 123/224/1
f 120/216/1 121/219/1 123/224/1
f 121/219/1 122/222/1 123/224/1
